# Made using Asset Forge (www.assetforge.io) version 1.3 

mtllib Cannon.mtl 

v 0.4330127 -0.2500004 -1.5
v 0.4330127 -0.2500001 0.3000001
v 0.4829629 -0.1294098 -1.5
v 0.4829629 -0.1294096 0.3000001
v 0.5 -2.384186E-07 -1.5
v 0.5 0 0.3000001
v 0.4829629 0.1294093 -1.5
v 0.4829629 0.1294096 0.3000001
v 0.4330127 0.2499999 -1.5
v 0.4330127 0.2500001 0.3
v 0.3535534 -0.3535534 0.3000001
v 0.3535534 -0.3535537 -1.5
v 0.3535534 0.3535532 -1.5
v 0.3535534 0.3535534 0.3
v 0.25 0.4330128 0.3
v 0.25 0.4330126 -1.5
v 0.1294095 0.482963 0.3
v 0.1294095 0.4829627 -1.5
v 0 0.5000001 0.3
v 0 0.4999999 -1.5
v -0.1294095 0.482963 0.3
v -0.1294095 0.4829627 -1.5
v 0.25 -0.4330131 -1.5
v 0.25 -0.4330128 0.3000001
v 0.1294095 -0.4829632 -1.5
v 0.1294095 -0.482963 0.3000001
v 0 -0.5000004 -1.5
v 0 -0.5000001 0.3000001
v -0.1294095 -0.4829632 -1.5
v -0.1294095 -0.482963 0.3000001
v -0.25 0.4330128 0.3
v -0.25 0.4330126 -1.5
v -0.3535534 0.3535534 0.3
v -0.3535534 0.3535532 -1.5
v -0.4330127 0.2499999 -1.5
v -0.4330127 0.2500001 0.3
v -0.4829629 0.1294093 -1.5
v -0.4829629 0.1294096 0.3000001
v -0.5 -2.384186E-07 -1.5
v -0.5 0 0.3000001
v -0.4829629 -0.1294098 -1.5
v -0.4829629 -0.1294096 0.3000001
v -0.4330127 -0.2500004 -1.5
v -0.4330127 -0.2500001 0.3000001
v -0.3535534 -0.3535537 -1.5
v -0.3535534 -0.3535534 0.3000001
v -0.25 -0.4330128 0.3000001
v -0.25 -0.4330131 -1.5
v 0.2965902 -1.804778E-16 0.3000001
v 0.2864842 0.07676322 0.3000001
v 0.2568547 0.1482951 0.3000001
v 0.209721 0.209721 0.3
v 0.1482951 0.2568547 0.3
v 0.07676321 0.2864842 0.3
v -3.609557E-16 0.2965903 0.3
v -0.07676321 0.2864842 0.3
v -0.1482951 0.2568547 0.3
v -0.209721 0.209721 0.3
v -0.2568547 0.1482951 0.3000001
v -0.2864842 0.07676322 0.3000001
v -0.2965902 6.316727E-16 0.3000001
v -0.2864842 -0.07676322 0.3000001
v -0.2568547 -0.1482951 0.3000001
v -0.209721 -0.209721 0.3000001
v -0.1482951 -0.2568547 0.3000001
v -0.07676321 -0.2864842 0.3000001
v 1.804779E-16 -0.2965903 0.3000001
v 0.07676321 -0.2864842 0.3000001
v 0.1482951 -0.2568547 0.3000001
v 0.209721 -0.209721 0.3000001
v 0.2568547 -0.1482951 0.3000001
v 0.2864842 -0.07676322 0.3000001
v 0.2965902 -2.384186E-07 -1.5
v 0.2864842 -0.07676351 -1.5
v 0.2568547 -0.1482954 -1.5
v 0.209721 -0.2097212 -1.5
v 0.1482951 -0.2568549 -1.5
v 0.07676321 -0.2864844 -1.5
v 1.804779E-16 -0.2965904 -1.5
v -0.07676321 -0.2864844 -1.5
v -0.1482951 -0.2568549 -1.5
v -0.209721 -0.2097212 -1.5
v -0.2568547 -0.1482954 -1.5
v -0.2864842 -0.07676351 -1.5
v -0.2965902 -2.384186E-07 -1.5
v -0.2864842 0.07676303 -1.5
v -0.2568547 0.1482949 -1.5
v -0.209721 0.2097207 -1.5
v -0.1482951 0.2568545 -1.5
v -0.07676321 0.286484 -1.5
v -3.609557E-16 0.2965901 -1.5
v 0.07676321 0.286484 -1.5
v 0.1482951 0.2568545 -1.5
v 0.209721 0.2097207 -1.5
v 0.2568547 0.1482949 -1.5
v 0.2864842 0.07676303 -1.5
vn 0.8432718 -0.5374876 5.960464E-08
vn 0.8871137 -0.461551 5.960464E-08
vn 0.9536499 -0.3009183 2.980232E-08
vn 0.9763442 -0.2162221 2.980232E-08
vn 0.9990385 -0.04384199 3.72529E-09
vn 0.9990385 0.04384199 -3.72529E-09
vn 0.9763442 0.2162221 -2.980232E-08
vn 0.9536499 0.3009183 -2.980232E-08
vn 0.8871137 0.461551 -5.960464E-08
vn 0.8432718 0.5374876 -5.960464E-08
vn 0.7071068 -0.7071069 5.960464E-08
vn 0.7071068 -0.7071069 5.960464E-08
vn 0.7071068 0.7071069 -5.960464E-08
vn 0.7071068 0.7071069 -5.960464E-08
vn 0.5374875 0.843272 -1.192093E-07
vn 0.4615509 0.887114 -1.192093E-07
vn 0.3009182 0.9536502 -1.192093E-07
vn 0.2162221 0.9763445 -1.192093E-07
vn 0.04384198 0.9990387 -1.192093E-07
vn -0.04384198 0.9990387 -1.192093E-07
vn -0.2162221 0.9763445 -1.192093E-07
vn -0.3009182 0.9536502 -1.192093E-07
vn 0.5374875 -0.843272 1.192093E-07
vn 0.4615509 -0.887114 1.192093E-07
vn 0.3009182 -0.9536502 1.192093E-07
vn 0.2162221 -0.9763445 1.192093E-07
vn 0.04384198 -0.9990387 1.192093E-07
vn -0.04384198 -0.9990387 1.192093E-07
vn -0.2162221 -0.9763445 1.192093E-07
vn -0.3009182 -0.9536502 1.192093E-07
vn -0.4615509 0.887114 -1.192093E-07
vn -0.5374875 0.843272 -1.192093E-07
vn -0.7071068 0.7071069 -5.960464E-08
vn -0.7071068 0.7071069 -5.960464E-08
vn -0.8432718 0.5374876 -5.960464E-08
vn -0.8871137 0.461551 -5.960464E-08
vn -0.9536499 0.3009183 -2.980232E-08
vn -0.9763442 0.2162221 -2.980232E-08
vn -0.9990385 0.04384199 -3.72529E-09
vn -0.9990385 -0.04384199 3.72529E-09
vn -0.9763442 -0.2162221 2.980232E-08
vn -0.9536499 -0.3009183 2.980232E-08
vn -0.8871137 -0.461551 5.960464E-08
vn -0.8432718 -0.5374876 5.960464E-08
vn -0.7071068 -0.7071069 5.960464E-08
vn -0.7071068 -0.7071069 5.960464E-08
vn -0.5374875 -0.843272 1.192093E-07
vn -0.4615509 -0.887114 1.192093E-07
vn 0 2.384186E-07 1.8
vn 0 -2.384186E-07 -1.8
vn -0.461551 -0.8871139 1.192093E-07
vn -0.7071068 -0.7071069 5.960464E-08
vn -0.5374876 -0.8432719 1.192093E-07
vn -0.8432717 -0.5374877 5.960464E-08
vn -0.8871137 -0.4615511 5.960464E-08
vn -0.9536499 -0.3009183 2.980232E-08
vn -0.9763442 -0.2162219 2.980232E-08
vn -0.9990385 -0.04384188 3.72529E-09
vn -0.9990385 0.04384188 -3.72529E-09
vn -0.9763442 0.2162219 -2.980232E-08
vn -0.9536499 0.3009183 -2.980232E-08
vn -0.8871137 0.4615511 -5.960464E-08
vn -0.8432717 0.5374877 -5.960464E-08
vn -0.5374876 0.8432719 -1.192093E-07
vn -0.461551 0.8871139 -1.192093E-07
vn -0.3009182 0.9536502 -1.192093E-07
vn -0.2162219 0.9763445 -1.192093E-07
vn -0.04384187 0.9990387 -1.192093E-07
vn 0.04384187 0.9990387 -1.192093E-07
vn 0.2162219 0.9763445 -1.192093E-07
vn 0.3009182 0.9536502 -1.192093E-07
vn 0.461551 0.8871139 -1.192093E-07
vn 0.5374876 0.8432719 -1.192093E-07
vn 0.8432717 0.5374877 -5.960464E-08
vn 0.8871137 0.4615511 -5.960464E-08
vn 0.9536499 0.3009183 -2.980232E-08
vn 0.9763442 0.2162219 -2.980232E-08
vn 0.9990385 0.04384188 -3.72529E-09
vn 0.9990385 -0.04384188 3.72529E-09
vn 0.9763442 -0.2162219 2.980232E-08
vn 0.9536499 -0.3009183 2.980232E-08
vn 0.8871137 -0.4615511 5.960464E-08
vn 0.8432717 -0.5374877 5.960464E-08
vn 0.5374876 -0.8432719 1.192093E-07
vn 0.461551 -0.8871139 1.192093E-07
vn 0.3009182 -0.9536502 1.192093E-07
vn 0.2162219 -0.9763445 1.192093E-07
vn 0.04384187 -0.9990387 1.192093E-07
vn -0.04384187 -0.9990387 1.192093E-07
vn -0.2162219 -0.9763445 1.192093E-07
vn -0.3009182 -0.9536502 1.192093E-07
vt 1.5 -0.2500003
vt -0.3000001 -0.2500001
vt 1.5 -0.1294098
vt -0.3000001 -0.1294096
vt 1.5 -2.145767E-07
vt -0.3000001 0
vt 1.5 0.1294093
vt -0.3 0.1294096
vt 1.5 0.2499999
vt -0.3 0.2500001
vt -0.3000001 -0.3535535
vt 1.5 -0.3535537
vt 1.5 0.3535533
vt -0.3 0.3535535
vt -0.3535534 0.3
vt -0.25 0.3
vt -0.3535534 -1.5
vt -0.25 -1.5
vt -0.1294095 0.3
vt -0.1294095 -1.5
vt 0 0.3
vt 0 -1.5
vt 0.1294095 0.3
vt 0.1294095 -1.5
vt -0.3535534 1.5
vt -0.25 1.5
vt -0.3535534 -0.3000001
vt -0.25 -0.3000001
vt -0.1294095 1.5
vt -0.1294095 -0.3000001
vt 0 1.5
vt 0 -0.3000001
vt 0.1294095 1.5
vt 0.1294095 -0.3000001
vt 0.25 0.3
vt 0.25 -1.5
vt 0.3535534 0.3
vt 0.3535534 -1.5
vt -1.5 0.3535533
vt 0.3 0.3535535
vt -1.5 0.2499999
vt 0.3 0.2500001
vt -1.5 0.1294093
vt 0.3 0.1294096
vt -1.5 -2.145767E-07
vt 0.3000001 0
vt -1.5 -0.1294098
vt 0.3000001 -0.1294096
vt -1.5 -0.2500003
vt 0.3000001 -0.2500001
vt -1.5 -0.3535537
vt 0.3000001 -0.3535535
vt 0.3535534 -0.3000001
vt 0.25 -0.3000001
vt 0.3535534 1.5
vt 0.25 1.5
vt 0.3535534 0.3535535
vt 0.2965902 -1.804778E-16
vt 0.25 0.4330128
vt 0.2864842 0.07676322
vt 0.2568547 0.1482951
vt 0.209721 0.209721
vt 0.1294095 0.482963
vt 0.1482951 0.2568547
vt 0.07676321 0.2864842
vt 0 0.5000001
vt -3.609557E-16 0.2965903
vt -0.1294095 0.482963
vt -0.07676321 0.2864842
vt -0.1482951 0.2568547
vt -0.25 0.4330128
vt -0.209721 0.209721
vt -0.2568547 0.1482951
vt -0.3535534 0.3535535
vt -0.2864842 0.07676322
vt -0.2965902 6.316728E-16
vt -0.3535534 -0.3535535
vt -0.2864842 -0.07676322
vt -0.2568547 -0.1482951
vt -0.25 -0.4330128
vt -0.209721 -0.209721
vt -0.1482951 -0.2568547
vt -0.1294095 -0.482963
vt -0.07676321 -0.2864842
vt 0 -0.5000001
vt 1.804779E-16 -0.2965903
vt 0.07676321 -0.2864842
vt 0.1294095 -0.482963
vt 0.1482951 -0.2568547
vt 0.209721 -0.209721
vt 0.25 -0.4330128
vt 0.2568547 -0.1482951
vt 0.2864842 -0.07676322
vt 0.3535534 -0.3535535
vt 0.4330127 0.2500001
vt 0.4330127 -0.2500001
vt 0.4829629 0.1294096
vt 0.4829629 -0.1294096
vt 0.5 0
vt -0.4330127 0.2500001
vt -0.4330127 -0.2500001
vt -0.4829629 0.1294096
vt -0.4829629 -0.1294096
vt -0.5 0
vt -0.5 -2.145767E-07
vt -0.4829629 0.1294093
vt -0.4829629 -0.1294098
vt -0.4330127 -0.2500003
vt -0.4330127 0.2499999
vt -0.3535534 -0.3535537
vt -0.3535534 0.3535533
vt -0.25 -0.4330131
vt -0.2965902 -2.145767E-07
vt -0.2864842 -0.07676344
vt -0.2568547 -0.1482954
vt -0.209721 -0.2097212
vt -0.1294095 -0.4829632
vt -0.1482951 -0.256855
vt -0.07676321 -0.2864845
vt 0 -0.5000004
vt -1.804779E-16 -0.2965905
vt 0.07676321 -0.2864845
vt 0.1294095 -0.4829632
vt 0.1482951 -0.256855
vt 0.25 -0.4330131
vt 0.209721 -0.2097212
vt 0.2568547 -0.1482954
vt 0.3535534 -0.3535537
vt 0.2864842 -0.07676344
vt 0.2965902 -2.145767E-07
vt 0.3535534 0.3535533
vt 0.2864842 0.07676301
vt 0.2568547 0.1482949
vt 0.25 0.4330126
vt 0.209721 0.2097208
vt 0.1482951 0.2568545
vt 0.1294095 0.4829628
vt 0.07676321 0.286484
vt 3.609557E-16 0.2965901
vt 0 0.4999999
vt -0.07676321 0.286484
vt -0.1294095 0.4829628
vt -0.1482951 0.2568545
vt -0.209721 0.2097208
vt -0.25 0.4330126
vt -0.2568547 0.1482949
vt -0.2864842 0.07676301
vt 0.4330127 -0.2500003
vt 0.4330127 0.2499999
vt 0.4829629 -0.1294098
vt 0.4829629 0.1294093
vt 0.5 -2.145767E-07
vt -0.1482951 -0.3
vt -0.209721 -0.3
vt -0.1482951 1.5
vt -0.209721 1.5
vt -1.5 0.2097208
vt 0.3 0.209721
vt -1.5 0.1482949
vt 0.3 0.1482951
vt -1.5 0.07676301
vt 0.3000001 0.07676322
vt 0.3000001 -1.804778E-16
vt -1.5 -0.07676344
vt 0.3000001 -0.07676322
vt -1.5 -0.1482954
vt 0.3000001 -0.1482951
vt -1.5 -0.2097212
vt 0.3000001 -0.209721
vt -0.209721 0.3000001
vt -0.1482951 0.3000001
vt -0.209721 -1.5
vt -0.1482951 -1.5
vt -0.07676321 0.3000001
vt -0.07676321 -1.5
vt -1.804779E-16 0.3000001
vt -1.804779E-16 -1.5
vt 0.07676321 0.3000001
vt 0.07676321 -1.5
vt 0.1482951 0.3000001
vt 0.1482951 -1.5
vt 0.209721 0.3000001
vt 0.209721 -1.5
vt 1.5 -0.2097212
vt -0.3000001 -0.209721
vt 1.5 -0.1482954
vt -0.3000001 -0.1482951
vt 1.5 -0.07676344
vt -0.3000001 -0.07676322
vt -0.3000001 6.316728E-16
vt 1.5 0.07676301
vt -0.3000001 0.07676322
vt 1.5 0.1482949
vt -0.3 0.1482951
vt 1.5 0.2097208
vt -0.3 0.209721
vt 0.209721 -0.3
vt 0.1482951 -0.3
vt 0.209721 1.5
vt 0.1482951 1.5
vt 0.07676321 -0.3
vt 0.07676321 1.5
vt 3.609557E-16 -0.3
vt 3.609557E-16 1.5
vt -0.07676321 -0.3
vt -0.07676321 1.5

usemtl _defaultMat (Instance) (Instance)
usemap _defaultMat (Instance) (Instance)
f 3/3/3 2/2/2 1/1/1
f 2/2/2 3/3/3 4/4/4
f 5/5/5 4/4/4 3/3/3
f 4/4/4 5/5/5 6/6/6
f 7/7/7 6/6/6 5/5/5
f 6/6/6 7/7/7 8/8/8
f 9/9/9 8/8/8 7/7/7
f 8/8/8 9/9/9 10/10/10
f 11/11/11 1/1/1 2/2/2
f 1/1/1 11/11/11 12/12/12
f 13/13/13 10/10/10 9/9/9
f 10/10/10 13/13/13 14/14/14
f 13/17/13 15/16/15 14/15/14
f 15/16/15 13/17/13 16/18/16
f 16/18/16 17/19/17 15/16/15
f 17/19/17 16/18/16 18/20/18
f 18/20/18 19/21/19 17/19/17
f 19/21/19 18/20/18 20/22/20
f 20/22/20 21/23/21 19/21/19
f 21/23/21 20/22/20 22/24/22
f 11/27/11 23/26/23 12/25/12
f 23/26/23 11/27/11 24/28/24
f 24/28/24 25/29/25 23/26/23
f 25/29/25 24/28/24 26/30/26
f 26/30/26 27/31/27 25/29/25
f 27/31/27 26/30/26 28/32/28
f 28/32/28 29/33/29 27/31/27
f 29/33/29 28/32/28 30/34/30
f 22/24/22 31/35/31 21/23/21
f 31/35/31 22/24/22 32/36/32
f 32/36/32 33/37/33 31/35/31
f 33/37/33 32/36/32 34/38/34
f 35/41/35 33/40/33 34/39/34
f 33/40/33 35/41/35 36/42/36
f 37/43/37 36/42/36 35/41/35
f 36/42/36 37/43/37 38/44/38
f 39/45/39 38/44/38 37/43/37
f 38/44/38 39/45/39 40/46/40
f 41/47/41 40/46/40 39/45/39
f 40/46/40 41/47/41 42/48/42
f 43/49/43 42/48/42 41/47/41
f 42/48/42 43/49/43 44/50/44
f 45/51/45 44/50/44 43/49/43
f 44/50/44 45/51/45 46/52/46
f 45/55/45 47/54/47 46/53/46
f 47/54/47 45/55/45 48/56/48
f 48/56/48 30/34/30 47/54/47
f 30/34/30 48/56/48 29/33/29
f 15/59/49 49/58/49 14/57/49
f 49/58/49 15/59/49 50/60/49
f 50/60/49 15/59/49 51/61/49
f 51/61/49 15/59/49 52/62/49
f 52/62/49 15/59/49 17/63/49
f 52/62/49 17/63/49 53/64/49
f 53/64/49 17/63/49 54/65/49
f 54/65/49 17/63/49 19/66/49
f 54/65/49 19/66/49 55/67/49
f 55/67/49 19/66/49 21/68/49
f 55/67/49 21/68/49 56/69/49
f 56/69/49 21/68/49 57/70/49
f 57/70/49 21/68/49 31/71/49
f 57/70/49 31/71/49 58/72/49
f 58/72/49 31/71/49 59/73/49
f 59/73/49 31/71/49 33/74/49
f 59/73/49 33/74/49 60/75/49
f 60/75/49 33/74/49 61/76/49
f 46/77/49 61/76/49 33/74/49
f 46/77/49 62/78/49 61/76/49
f 46/77/49 63/79/49 62/78/49
f 47/80/49 63/79/49 46/77/49
f 47/80/49 64/81/49 63/79/49
f 47/80/49 65/82/49 64/81/49
f 30/83/49 65/82/49 47/80/49
f 30/83/49 66/84/49 65/82/49
f 28/85/49 66/84/49 30/83/49
f 28/85/49 67/86/49 66/84/49
f 28/85/49 68/87/49 67/86/49
f 26/88/49 68/87/49 28/85/49
f 26/88/49 69/89/49 68/87/49
f 26/88/49 70/90/49 69/89/49
f 24/91/49 70/90/49 26/88/49
f 24/91/49 71/92/49 70/90/49
f 24/91/49 72/93/49 71/92/49
f 24/91/49 49/58/49 72/93/49
f 24/91/49 14/57/49 49/58/49
f 11/94/49 14/57/49 24/91/49
f 11/94/49 10/95/49 14/57/49
f 2/96/49 10/95/49 11/94/49
f 2/96/49 8/97/49 10/95/49
f 4/98/49 8/97/49 2/96/49
f 8/97/49 4/98/49 6/99/49
f 46/77/49 33/74/49 36/100/49
f 46/77/49 36/100/49 44/101/49
f 44/101/49 36/100/49 38/102/49
f 44/101/49 38/102/49 42/103/49
f 42/103/49 38/102/49 40/104/49
f 3/107/50 7/106/50 5/105/50
f 7/106/50 3/107/50 1/108/50
f 7/106/50 1/108/50 9/109/50
f 9/109/50 1/108/50 12/110/50
f 9/109/50 12/110/50 13/111/50
f 13/111/50 12/110/50 23/112/50
f 13/111/50 23/112/50 73/113/50
f 73/113/50 23/112/50 74/114/50
f 74/114/50 23/112/50 75/115/50
f 75/115/50 23/112/50 76/116/50
f 76/116/50 23/112/50 25/117/50
f 76/116/50 25/117/50 77/118/50
f 77/118/50 25/117/50 78/119/50
f 78/119/50 25/117/50 27/120/50
f 78/119/50 27/120/50 79/121/50
f 79/121/50 27/120/50 80/122/50
f 80/122/50 27/120/50 29/123/50
f 80/122/50 29/123/50 81/124/50
f 81/124/50 29/123/50 48/125/50
f 81/124/50 48/125/50 82/126/50
f 82/126/50 48/125/50 83/127/50
f 83/127/50 48/125/50 45/128/50
f 83/127/50 45/128/50 84/129/50
f 84/129/50 45/128/50 85/130/50
f 34/131/50 85/130/50 45/128/50
f 34/131/50 86/132/50 85/130/50
f 34/131/50 87/133/50 86/132/50
f 32/134/50 87/133/50 34/131/50
f 32/134/50 88/135/50 87/133/50
f 32/134/50 89/136/50 88/135/50
f 22/137/50 89/136/50 32/134/50
f 22/137/50 90/138/50 89/136/50
f 22/137/50 91/139/50 90/138/50
f 20/140/50 91/139/50 22/137/50
f 20/140/50 92/141/50 91/139/50
f 18/142/50 92/141/50 20/140/50
f 18/142/50 93/143/50 92/141/50
f 18/142/50 94/144/50 93/143/50
f 16/145/50 94/144/50 18/142/50
f 16/145/50 95/146/50 94/144/50
f 16/145/50 96/147/50 95/146/50
f 16/145/50 73/113/50 96/147/50
f 73/113/50 16/145/50 13/111/50
f 34/131/50 45/128/50 43/148/50
f 34/131/50 43/148/50 35/149/50
f 35/149/50 43/148/50 41/150/50
f 35/149/50 41/150/50 37/151/50
f 37/151/50 41/150/50 39/152/50
f 93/155/53 52/154/52 53/153/51
f 52/154/52 93/155/53 94/156/46
f 95/159/54 52/158/52 94/157/46
f 52/158/52 95/159/54 51/160/55
f 96/161/56 51/160/55 95/159/54
f 51/160/55 96/161/56 50/162/57
f 73/45/58 50/162/57 96/161/56
f 50/162/57 73/45/58 49/163/59
f 74/164/60 49/163/59 73/45/58
f 49/163/59 74/164/60 72/165/61
f 75/166/62 72/165/61 74/164/60
f 72/165/61 75/166/62 71/167/63
f 76/168/33 71/167/63 75/166/62
f 71/167/63 76/168/33 70/169/34
f 76/172/33 69/171/64 70/170/34
f 69/171/64 76/172/33 77/173/65
f 77/173/65 68/174/66 69/171/64
f 68/174/66 77/173/65 78/175/67
f 78/175/67 67/176/68 68/174/66
f 67/176/68 78/175/67 79/177/69
f 79/177/69 66/178/70 67/176/68
f 66/178/70 79/177/69 80/179/71
f 80/179/71 65/180/72 66/178/70
f 65/180/72 80/179/71 81/181/73
f 81/181/73 64/182/13 65/180/72
f 64/182/13 81/181/73 82/183/14
f 83/186/74 64/185/13 82/184/14
f 64/185/13 83/186/74 63/187/75
f 84/188/76 63/187/75 83/186/74
f 63/187/75 84/188/76 62/189/77
f 85/5/78 62/189/77 84/188/76
f 62/189/77 85/5/78 61/190/79
f 86/191/80 61/190/79 85/5/78
f 61/190/79 86/191/80 60/192/81
f 87/193/82 60/192/81 86/191/80
f 60/192/81 87/193/82 59/194/83
f 88/195/11 59/194/83 87/193/82
f 59/194/83 88/195/11 58/196/12
f 88/199/11 57/198/84 58/197/12
f 57/198/84 88/199/11 89/200/85
f 89/200/85 56/201/86 57/198/84
f 56/201/86 89/200/85 90/202/87
f 90/202/87 55/203/88 56/201/86
f 55/203/88 90/202/87 91/204/89
f 91/204/89 54/205/90 55/203/88
f 54/205/90 91/204/89 92/206/91
f 92/206/91 53/153/51 54/205/90
f 53/153/51 92/206/91 93/155/53
v 0.4330127 -0.2500001 0.3
v 0.4330127 -0.2500001 0.5
v 0.4829629 -0.1294096 0.3
v 0.4829629 -0.1294096 0.5
v 0.5 -2.980232E-08 0.3
v 0.5 0 0.5
v 0.4829629 0.1294095 0.3
v 0.4829629 0.1294096 0.5
v 0.4330127 0.25 0.2999999
v 0.4330127 0.2500001 0.5
v 0.3535534 -0.3535534 0.5
v 0.3535534 -0.3535534 0.3
v 0.3535534 0.3535534 0.3
v 0.3535534 0.3535534 0.5
v 0.25 0.4330128 0.4999999
v 0.25 0.4330128 0.2999999
v 0.1294095 0.482963 0.4999999
v 0.1294095 0.482963 0.2999999
v 0 0.5000001 0.4999999
v 0 0.5000001 0.2999999
v -0.1294095 0.482963 0.4999999
v -0.1294095 0.482963 0.2999999
v 0.25 -0.4330129 0.3
v 0.25 -0.4330128 0.5000001
v 0.1294095 -0.4829631 0.3
v 0.1294095 -0.482963 0.5000001
v 0 -0.5000001 0.3
v 0 -0.5000001 0.5000001
v -0.1294095 -0.4829631 0.3
v -0.1294095 -0.482963 0.5000001
v -0.25 0.4330128 0.4999999
v -0.25 0.4330128 0.2999999
v -0.3535534 0.3535534 0.5
v -0.3535534 0.3535534 0.3
v -0.4330127 0.25 0.2999999
v -0.4330127 0.2500001 0.5
v -0.4829629 0.1294095 0.3
v -0.4829629 0.1294096 0.5
v -0.5 -2.980232E-08 0.3
v -0.5 0 0.5
v -0.4829629 -0.1294096 0.3
v -0.4829629 -0.1294096 0.5
v -0.4330127 -0.2500001 0.3
v -0.4330127 -0.2500001 0.5
v -0.3535534 -0.3535534 0.3
v -0.3535534 -0.3535534 0.5
v -0.25 -0.4330128 0.5000001
v -0.25 -0.4330129 0.3
vn 0 2.980232E-08 0.2
vn 0 -2.980232E-08 -0.2
vt -0.3 -0.2500001
vt -0.5000001 -0.2500001
vt -0.3 -0.1294096
vt -0.5 -0.1294096
vt -0.3 -2.384186E-08
vt -0.2999999 0.1294095
vt -0.5 0.1294096
vt -0.2999999 0.25
vt -0.5 0.2500001
vt -0.5000001 -0.3535535
vt -0.3 -0.3535535
vt -0.2999999 0.3535534
vt -0.5 0.3535535
vt -0.3535534 0.5
vt -0.25 0.4999999
vt -0.3535534 0.2999999
vt -0.25 0.2999999
vt -0.1294095 0.4999999
vt -0.1294095 0.2999999
vt 0 0.4999999
vt 0 0.2999999
vt 0.1294095 0.4999999
vt 0.1294095 0.2999999
vt -0.3535534 -0.3
vt -0.25 -0.3
vt -0.3535534 -0.5000001
vt -0.25 -0.5000001
vt -0.1294095 -0.3
vt -0.1294095 -0.5000001
vt 0 -0.3
vt 0 -0.5000001
vt 0.1294095 -0.3
vt 0.1294095 -0.5000001
vt 0.25 0.4999999
vt 0.25 0.2999999
vt 0.3535534 0.5
vt 0.3535534 0.2999999
vt 0.2999999 0.3535534
vt 0.5 0.3535535
vt 0.2999999 0.25
vt 0.5 0.2500001
vt 0.2999999 0.1294095
vt 0.5 0.1294096
vt 0.3 -2.384186E-08
vt 0.3 -0.1294096
vt 0.5 -0.1294096
vt 0.3 -0.2500001
vt 0.5000001 -0.2500001
vt 0.3 -0.3535535
vt 0.5000001 -0.3535535
vt 0.3535534 -0.5000001
vt 0.25 -0.5000001
vt 0.3535534 -0.3
vt 0.25 -0.3
vt -0.5 -2.384186E-08
vt -0.4829629 0.1294095
vt -0.4829629 -0.1294096
vt -0.4330127 -0.2500001
vt -0.4330127 0.25
vt -0.3535534 -0.3535535
vt -0.3535534 0.3535534
vt -0.25 -0.4330128
vt -0.1294095 -0.4829631
vt -0.1294095 0.482963
vt 0.1294095 -0.4829631
vt 0.1294095 0.482963
vt 0.25 -0.4330128
vt 0.3535534 -0.3535535
vt 0.3535534 0.3535534
vt 0.4330127 -0.2500001
vt 0.4330127 0.25
vt 0.4829629 -0.1294096
vt 0.4829629 0.1294095
vt 0.5 -2.384186E-08

usemtl _defaultMat (Instance) (Instance)
usemap _defaultMat (Instance) (Instance)
f 99/209/3 98/208/2 97/207/1
f 98/208/2 99/209/3 100/210/4
f 101/211/5 100/210/4 99/209/3
f 100/210/4 101/211/5 102/104/6
f 103/212/7 102/104/6 101/211/5
f 102/104/6 103/212/7 104/213/8
f 105/214/9 104/213/8 103/212/7
f 104/213/8 105/214/9 106/215/10
f 107/216/11 97/207/1 98/208/2
f 97/207/1 107/216/11 108/217/12
f 109/218/13 106/215/10 105/214/9
f 106/215/10 109/218/13 110/219/14
f 109/222/13 111/221/15 110/220/14
f 111/221/15 109/222/13 112/223/16
f 112/223/16 113/224/17 111/221/15
f 113/224/17 112/223/16 114/225/18
f 114/225/18 115/226/19 113/224/17
f 115/226/19 114/225/18 116/227/20
f 116/227/20 117/228/21 115/226/19
f 117/228/21 116/227/20 118/229/22
f 107/232/11 119/231/23 108/230/12
f 119/231/23 107/232/11 120/233/24
f 120/233/24 121/234/25 119/231/23
f 121/234/25 120/233/24 122/235/26
f 122/235/26 123/236/27 121/234/25
f 123/236/27 122/235/26 124/237/28
f 124/237/28 125/238/29 123/236/27
f 125/238/29 124/237/28 126/239/30
f 118/229/22 127/240/31 117/228/21
f 127/240/31 118/229/22 128/241/32
f 128/241/32 129/242/33 127/240/31
f 129/242/33 128/241/32 130/243/34
f 131/246/35 129/245/33 130/244/34
f 129/245/33 131/246/35 132/247/36
f 133/248/37 132/247/36 131/246/35
f 132/247/36 133/248/37 134/249/38
f 135/250/39 134/249/38 133/248/37
f 134/249/38 135/250/39 136/99/40
f 137/251/41 136/99/40 135/250/39
f 136/99/40 137/251/41 138/252/42
f 139/253/43 138/252/42 137/251/41
f 138/252/42 139/253/43 140/254/44
f 141/255/45 140/254/44 139/253/43
f 140/254/44 141/255/45 142/256/46
f 141/259/45 143/258/47 142/257/46
f 143/258/47 141/259/45 144/260/48
f 144/260/48 126/239/30 143/258/47
f 126/239/30 144/260/48 125/238/29
f 104/97/92 100/98/92 102/99/92
f 100/98/92 104/97/92 98/96/92
f 98/96/92 104/97/92 106/95/92
f 98/96/92 106/95/92 107/94/92
f 107/94/92 106/95/92 110/57/92
f 107/94/92 110/57/92 120/91/92
f 120/91/92 110/57/92 111/59/92
f 120/91/92 111/59/92 122/88/92
f 122/88/92 111/59/92 113/63/92
f 122/88/92 113/63/92 115/66/92
f 122/88/92 115/66/92 124/85/92
f 124/85/92 115/66/92 117/68/92
f 124/85/92 117/68/92 126/83/92
f 126/83/92 117/68/92 143/80/92
f 143/80/92 117/68/92 127/71/92
f 143/80/92 127/71/92 142/77/92
f 142/77/92 127/71/92 129/74/92
f 142/77/92 129/74/92 140/101/92
f 140/101/92 129/74/92 132/100/92
f 140/101/92 132/100/92 138/103/92
f 138/103/92 132/100/92 134/102/92
f 138/103/92 134/102/92 136/104/92
f 99/263/93 103/262/93 101/261/93
f 103/262/93 99/263/93 97/264/93
f 103/262/93 97/264/93 105/265/93
f 105/265/93 97/264/93 108/266/93
f 105/265/93 108/266/93 109/267/93
f 109/267/93 108/266/93 119/268/93
f 109/267/93 119/268/93 112/71/93
f 112/71/93 119/268/93 121/269/93
f 112/71/93 121/269/93 114/270/93
f 114/270/93 121/269/93 123/85/93
f 114/270/93 123/85/93 116/66/93
f 116/66/93 123/85/93 125/271/93
f 116/66/93 125/271/93 118/272/93
f 118/272/93 125/271/93 144/273/93
f 118/272/93 144/273/93 128/59/93
f 128/59/93 144/273/93 141/274/93
f 128/59/93 141/274/93 130/275/93
f 130/275/93 141/274/93 139/276/93
f 130/275/93 139/276/93 131/277/93
f 131/277/93 139/276/93 137/278/93
f 131/277/93 137/278/93 133/279/93
f 133/279/93 137/278/93 135/280/93
